<svg id="Layer_1" data-name="Layer 1" xmlns="http://www.w3.org/2000/svg" viewBox="0 0 146.56 177.07"><defs><style>.cls-1,.cls-2{fill:#18a1c2;}.cls-2{font-size:21.17px;font-family:Bebas, Bebas;}.cls-3{letter-spacing:0.02em;}.cls-4{letter-spacing:0.02em;}.cls-5{letter-spacing:0.03em;}.cls-6{letter-spacing:0.02em;}.cls-7{letter-spacing:0.01em;}.cls-8{fill:none;stroke:#18a1c2;stroke-miterlimit:10;}</style></defs><title>mahoutlogo</title><path class="cls-1" d="M138.06,11.44c-.54,0-1.2-.22-1.2-.87,0,0-3.8,4.57-6.31,13.37S126.65,36.22,126,38.5s-2,5.22-4.13,5.76S114,45.89,109.8,49.8c-1.85,1.52-6.2,7.28-8.26,8.7s-4.67,5.11-9.67,4S77.3,57.09,70,69.26a24.65,24.65,0,0,0-2.38,5A31.69,31.69,0,0,1,43.09,92.28c6-.17,15.51-1.8,24-14.89a10.14,10.14,0,0,0,.08,1.33c.43,3.48,1,8,.76,10.32s1.09,4.57.22,6.63-2.83,8.68-2.83,11.08a25,25,0,0,1-.48,3.27H78.31c-.15-1-.36-.68-.69-.77-1.09-.33-1-8.53,0-10.7,0-.06.06-.15.1-.22l0-.08.08-.14L77.9,98,78,97.9l.06-.08.11-.14.06-.07.15-.17,0,0,.2-.22.05-.06.16-.17.08-.08.15-.16.08-.08.16-.16.08-.08.19-.19.06-.06.92-.89.13-.12.15-.14.15-.15.13-.12.2-.2.09-.09.27-.26.1-.1.18-.19.11-.12.17-.18.11-.12.17-.18.11-.12.18-.21.09-.1.26-.3.07-.09.18-.22.09-.12.15-.19.1-.13.14-.19.09-.13.14-.21.08-.12.19-.32,1.06-.27.08.05L88,89.91a11.59,11.59,0,0,0,5.52-.69,15.27,15.27,0,0,0,2.63-.94c1.75-.82,3.39-1.5,4.72-2a20.47,20.47,0,0,0,1.69,4.07c1.09,1.74,1.3,4.89.87,8.58s-1.09,6.08-2.07,7.49S99,109,99.24,110h13.52c-.13-1-.28-.77-.46-1a2.37,2.37,0,0,1,0-2.55c.54-1,1.09-3.39,1.52-8.07s.76-13.81.44-16.42a34.38,34.38,0,0,1,.22-7.83c.11-.65,3.37-1.2,3.7-2s.87-2,2.06-2.07,2.39.11,3.7-1.85,3.15-2.72,1.63-4.13l-.39-.35-.1-.08-.37-.31-.09-.07c-.09-.07-.18.09-.27,0-.72-.57-1.39-1.34-1.89-1.34h0c.62-1,1.23-1.12,1.69-1.77a60.68,60.68,0,0,0,3.37-7.07,2.35,2.35,0,0,0,1.74-2.45c8.59-3.26,8-9.16,7.93-11s-.87-1.86-.87-1.21a8.64,8.64,0,0,1-7.07,9.23s0,.54,0,1.22c-.05-.73-.12-1.47-.11-2.24.39-.24,2.57-1.74,3.16-6.48.13-1.36-.19-1.27-.19-1.27s-.39,0-.47.92a13,13,0,0,1-2.33,5.22,7.45,7.45,0,0,1,.43-1.41c1.09-2.61,3-13.8,3.37-17.06s1.2-8.8,2.28-10.65,1.63-3,2.28-3.37S138.6,11.44,138.06,11.44ZM71.6,104.18v.05l-.1.6v.07l-.21,1.27,0,.1-.09.55v.07c0,.2-.06.4-.09.59v.08L71,108l0,.14-.07.47v0a2.58,2.58,0,0,1-.31-2,22.64,22.64,0,0,1,1.15-3.12Zm35.7,4.32c-.33-1.09-1-2.93-.11-4.46.32-.56.81-1.53,1.3-2.58C108.45,104.38,107.62,108.29,107.3,108.5Z" transform="translate(-14.61 -10.57)"/><path class="cls-1" d="M39.7,92.67c-2.74,2-2.8,2.86-.93,1.64,1.54-1,2.19-2.31,4.32-2C43.09,92.29,41.76,91.17,39.7,92.67Z" transform="translate(-14.61 -10.57)"/><text class="cls-2" transform="translate(38.8 123.9)"><tspan class="cls-3">M</tspan><tspan class="cls-4" x="15.56" y="0">A</tspan><tspan class="cls-5" x="28.22" y="0">H</tspan><tspan class="cls-6" x="39.84" y="0">O</tspan><tspan class="cls-7" x="51.33" y="0">U</tspan><tspan x="62.61" y="0">T</tspan></text><polygon class="cls-8" points="73.3 100.96 145.94 100.96 136 145.62 73.3 176.18 14.28 147.17 0.67 100.96 73.3 100.96"/><polygon class="cls-1" points="73.3 129.31 140.35 125.78 136 145.42 73.22 177.07 14.28 146.91 8.58 127.5 73.3 129.31"/></svg>