<svg id="Layer_1" data-name="Layer 1" xmlns="http://www.w3.org/2000/svg" viewBox="0 0 251.43 304.89"><defs><style>.cls-1{opacity:0.45;}.cls-2,.cls-3{fill:#fff;}.cls-3{font-size:36.45px;font-family:Bebas, Bebas;}.cls-4{letter-spacing:0.02em;}.cls-5{letter-spacing:0.02em;}.cls-6{letter-spacing:0.03em;}.cls-7{letter-spacing:0.02em;}.cls-8{letter-spacing:0.01em;}.cls-9{fill:none;stroke:#fff;stroke-miterlimit:10;}</style></defs><title>whitelogo</title><g class="cls-1"><path class="cls-2" d="M241.66,24.26c-.94,0-2.06-.37-2.06-1.5,0,0-6.55,7.86-10.86,23S222,66.93,220.88,70.86s-3.37,9-7.11,9.92S200.3,83.59,193,90.32c-3.18,2.62-10.67,12.54-14.22,15s-8,8.8-16.66,6.92-25.08-9.36-37.62,11.6a42.45,42.45,0,0,0-4.1,8.53c-3.86,8.18-15.62,27.35-42.26,31.1,10.26-.29,26.71-3.11,41.36-25.63a17.47,17.47,0,0,0,.13,2.28c.75,6,1.68,13.85,1.31,17.78s1.87,7.86.37,11.42-4.87,15.06-4.87,19.17c0,2.11-.63,2.74-.83,5.74h23.16c-.25-3-.62-1.27-1.18-1.44-1.87-.56-1.68-14.73,0-18.48,0-.11.11-.29.17-.4l.06-.14c0-.08.09-.17.14-.25l.09-.14.15-.23.1-.14.18-.24.1-.13.25-.3.06-.08.34-.38.09-.1.27-.29.14-.14.26-.27.14-.15.28-.28.14-.14.33-.32.1-.1,1.59-1.53.22-.21.26-.25.27-.26.22-.21.35-.34.15-.15.46-.46.17-.17.31-.32.19-.2.29-.3.2-.21.29-.31.19-.21.31-.35.15-.17.44-.51.13-.15.31-.38.16-.21.26-.33.17-.22.24-.33.15-.22.24-.36.13-.2c.12-.18.23-.36.34-.55l1.83-.47.13.09,4.21-1.22a20,20,0,0,0,9.51-1.19,26.29,26.29,0,0,0,4.53-1.61c3-1.41,5.84-2.58,8.13-3.45a35.25,35.25,0,0,0,2.91,7c1.87,3,2.24,8.42,1.5,14.78s-1.87,10.56-3.56,13-4,3.3-3.58,6.3h23.28c-.22-3-.48-1.43-.79-1.81a4.16,4.16,0,0,1,0-4.44c.94-1.68,1.87-5.87,2.62-13.92s1.31-23.8.75-28.29a59.25,59.25,0,0,1,.37-13.49c.19-1.12,5.8-2.07,6.36-3.38s1.5-3.37,3.56-3.56,4.12.19,6.36-3.18,5.42-4.68,2.81-7.11l-.67-.6-.17-.14-.63-.53-.16-.12c-.15-.12-.31.58-.46.46-1.24-1-2.39-1.87-3.25-1.87h0c1.07-3,2.11-2.36,2.91-3.48,1.87-2.62,5.8-12.39,5.8-12.39s2.81-.58,3-4.32c14.79-5.61,13.85-15.82,13.66-19s-1.5-3.23-1.5-2.11c.56,13.85-12.17,15.88-12.17,15.88s-.06.91-.08,2.09c-.09-1.25-.21-2.54-.19-3.86.68-.41,4.42-3,5.44-11.15.22-2.34-.33-2.18-.33-2.18s-.66,0-.81,1.59-2,6.74-4,9a12.83,12.83,0,0,1,.74-2.43c1.87-4.49,5.24-23.77,5.8-29.38S235.11,35.3,237,32.12s2.81-5.24,3.93-5.8S242.59,24.26,241.66,24.26ZM127.22,183.95l0,.09-.17,1,0,.12c-.12.73-.24,1.46-.36,2.18l0,.18-.15.94,0,.12c-.05.34-.11.68-.16,1,0,0,0,.09,0,.13l-.12.81,0,.24-.12.81v.08a4.45,4.45,0,0,1-.54-3.5,39,39,0,0,1,2-5.38Zm61.47,7.44c-.56-1.87-1.68-5.05-.19-7.67.55-1,1.4-2.64,2.24-4.44C190.67,184.29,189.24,191,188.69,191.39Z" transform="translate(-29.57 -22.76)"/><path class="cls-2" d="M72.3,164.13c-4.72,3.45-4.82,4.92-1.59,2.83,2.64-1.72,3.76-4,7.43-3.48C78.14,163.48,75.83,161.55,72.3,164.13Z" transform="translate(-29.57 -22.76)"/><text class="cls-3" transform="translate(66.33 213.34)"><tspan class="cls-4">M</tspan><tspan class="cls-5" x="26.79" y="0">A</tspan><tspan class="cls-6" x="48.59" y="0">H</tspan><tspan class="cls-7" x="68.6" y="0">O</tspan><tspan class="cls-8" x="88.38" y="0">U</tspan><tspan x="107.8" y="0">T</tspan></text><polygon class="cls-9" points="125.74 173.96 250.81 173.96 233.7 250.8 125.74 303.4 24.1 253.48 0.67 173.96 125.74 173.96"/><polygon class="cls-2" points="125.74 222.66 241.19 216.58 233.7 250.39 125.59 304.89 24.1 252.96 14.29 219.54 125.74 222.66"/></g></svg>